<svg id="visual" viewBox="0 0 900 600" width="900" height="600" xmlns="http://www.w3.org/2000/svg" xmlns:xlink="http://www.w3.org/1999/xlink" version="1.1"><rect x="0" y="0" width="900" height="600" fill="#03254E"></rect><path d="M0 512L15 511.5C30 511 60 510 90 507C120 504 150 499 180 491.3C210 483.7 240 473.3 270 473.5C300 473.7 330 484.3 360 491.2C390 498 420 501 450 503.5C480 506 510 508 540 502.7C570 497.3 600 484.7 630 475.3C660 466 690 460 720 460.5C750 461 780 468 810 477.7C840 487.3 870 499.7 885 505.8L900 512L900 601L885 601C870 601 840 601 810 601C780 601 750 601 720 601C690 601 660 601 630 601C600 601 570 601 540 601C510 601 480 601 450 601C420 601 390 601 360 601C330 601 300 601 270 601C240 601 210 601 180 601C150 601 120 601 90 601C60 601 30 601 15 601L0 601Z" fill="#4A6572" stroke-linecap="round" stroke-linejoin="miter"></path></svg>