<svg id="visual" viewBox="0 0 900 600" width="900" height="600" xmlns="http://www.w3.org/2000/svg" xmlns:xlink="http://www.w3.org/1999/xlink" version="1.1"><path d="M0 464L11.5 468C23 472 46 480 69 483.7C92 487.3 115 486.7 138.2 486.3C161.3 486 184.7 486 207.8 481.8C231 477.7 254 469.3 277 468.2C300 467 323 473 346 475.7C369 478.3 392 477.7 415.2 476.7C438.3 475.7 461.7 474.3 484.8 476.2C508 478 531 483 554 485.3C577 487.7 600 487.3 623 482.7C646 478 669 469 692.2 469C715.3 469 738.7 478 761.8 483C785 488 808 489 831 485.7C854 482.3 877 474.7 888.5 470.8L900 467" fill="none" stroke-linecap="round" stroke-linejoin="miter" stroke="#66BB6A" stroke-width="20"></path></svg>