<svg id="visual" viewBox="0 0 900 600" width="900" height="600" xmlns="http://www.w3.org/2000/svg" xmlns:xlink="http://www.w3.org/1999/xlink" version="1.1"><rect x="0" y="0" width="900" height="600" fill="#03254E"></rect><path d="M0 550L18.8 541.5C37.7 533 75.3 516 112.8 511.7C150.3 507.3 187.7 515.7 225.2 512.7C262.7 509.7 300.3 495.3 337.8 493.7C375.3 492 412.7 503 450.2 512.3C487.7 521.7 525.3 529.3 562.8 530.2C600.3 531 637.7 525 675.2 523.7C712.7 522.3 750.3 525.7 787.8 518.8C825.3 512 862.7 495 881.3 486.5L900 478L900 601L881.3 601C862.7 601 825.3 601 787.8 601C750.3 601 712.7 601 675.2 601C637.7 601 600.3 601 562.8 601C525.3 601 487.7 601 450.2 601C412.7 601 375.3 601 337.8 601C300.3 601 262.7 601 225.2 601C187.7 601 150.3 601 112.8 601C75.3 601 37.7 601 18.8 601L0 601Z" fill="#4A6572" stroke-linecap="round" stroke-linejoin="miter"></path></svg>