<svg id="visual" viewBox="0 0 900 600" width="900" height="600" xmlns="http://www.w3.org/2000/svg" xmlns:xlink="http://www.w3.org/1999/xlink" version="1.1"><rect x="0" y="0" width="900" height="600" fill="#03254E"></rect><path d="M0 433L21.5 425C43 417 86 401 128.8 392.7C171.7 384.3 214.3 383.7 257.2 397.2C300 410.7 343 438.3 385.8 445.2C428.7 452 471.3 438 514.2 438.8C557 439.7 600 455.3 642.8 466.8C685.7 478.3 728.3 485.7 771.2 472.8C814 460 857 427 878.5 410.5L900 394L900 601L878.5 601C857 601 814 601 771.2 601C728.3 601 685.7 601 642.8 601C600 601 557 601 514.2 601C471.3 601 428.7 601 385.8 601C343 601 300 601 257.2 601C214.3 601 171.7 601 128.8 601C86 601 43 601 21.5 601L0 601Z" fill="#4A6572" stroke-linecap="round" stroke-linejoin="miter"></path></svg>