<svg id="visual" viewBox="0 0 900 600" width="900" height="600" xmlns="http://www.w3.org/2000/svg" xmlns:xlink="http://www.w3.org/1999/xlink" version="1.1"><rect x="0" y="0" width="900" height="600" fill="#002233"></rect><path d="M0 450L21.5 460.5C43 471 86 492 128.8 488.5C171.7 485 214.3 457 257.2 436C300 415 343 401 385.8 402.8C428.7 404.7 471.3 422.3 514.2 439.2C557 456 600 472 642.8 464.5C685.7 457 728.3 426 771.2 415.5C814 405 857 415 878.5 420L900 425L900 601L878.5 601C857 601 814 601 771.2 601C728.3 601 685.7 601 642.8 601C600 601 557 601 514.2 601C471.3 601 428.7 601 385.8 601C343 601 300 601 257.2 601C214.3 601 171.7 601 128.8 601C86 601 43 601 21.5 601L0 601Z" fill="#0066FF" stroke-linecap="round" stroke-linejoin="miter"></path></svg>